<svg xmlns="http://www.w3.org/2000/svg" width="1100" height="620" viewBox="0 0 1100 620">
<style>
text{font-family:Georgia,'Times New Roman',serif;fill:#17212b}
.title{font-size:30px;font-weight:700}
.subtitle{font-size:15px;fill:#5c6873}
.axis{stroke:#26323d;stroke-width:1.3}
.grid{stroke:#d9e0e6;stroke-width:1}
.tick{font-size:13px;fill:#64717d}
.label{font-size:14px;font-weight:600}
.value{font-size:13px;fill:#17212b}
.legend{font-size:14px}
</style>
<rect width="100%" height="100%" fill="#fbf8ef"/>
<rect x="24" y="24" width="1052" height="572" rx="22" fill="#fffdf8" stroke="#e1d7c2"/>
<text x="120" y="54" class="title">Unicast PDR: Three-Protocol Comparison</text>
<text x="120" y="78" class="subtitle">50 nodes, 3000 m area, 1200 s, 20 seeds</text>
<line x1="120" y1="502.0" x2="1040" y2="502.0" class="grid"/>
<text x="108" y="506.0" text-anchor="end" class="tick">0.000</text>
<line x1="120" y1="418.8" x2="1040" y2="418.8" class="grid"/>
<text x="108" y="422.8" text-anchor="end" class="tick">0.216</text>
<line x1="120" y1="335.6" x2="1040" y2="335.6" class="grid"/>
<text x="108" y="339.6" text-anchor="end" class="tick">0.431</text>
<line x1="120" y1="252.4" x2="1040" y2="252.4" class="grid"/>
<text x="108" y="256.4" text-anchor="end" class="tick">0.647</text>
<line x1="120" y1="169.2" x2="1040" y2="169.2" class="grid"/>
<text x="108" y="173.2" text-anchor="end" class="tick">0.863</text>
<line x1="120" y1="86.0" x2="1040" y2="86.0" class="grid"/>
<text x="108" y="90.0" text-anchor="end" class="tick">1.079</text>
<line x1="120" y1="86" x2="120" y2="502" class="axis"/>
<line x1="120" y1="502" x2="1040" y2="502" class="axis"/>
<rect x="187.5" y="136.4" width="47.8" height="365.6" rx="6" fill="#2f6f73"/>
<text x="211.4" y="128.4" text-anchor="middle" class="value">0.948</text>
<rect x="248.8" y="254.6" width="47.8" height="247.4" rx="6" fill="#c77d32"/>
<text x="272.7" y="246.6" text-anchor="middle" class="value">0.642</text>
<rect x="310.1" y="131.0" width="47.8" height="371.0" rx="6" fill="#1f4e8c"/>
<text x="334.1" y="123.0" text-anchor="middle" class="value">0.962</text>
<text x="273.3" y="548" text-anchor="middle" class="label">Mixed traffic</text>
<rect x="494.1" y="135.6" width="47.8" height="366.4" rx="6" fill="#2f6f73"/>
<text x="518.1" y="127.6" text-anchor="middle" class="value">0.950</text>
<rect x="555.5" y="257.9" width="47.8" height="244.1" rx="6" fill="#c77d32"/>
<text x="579.4" y="249.9" text-anchor="middle" class="value">0.633</text>
<rect x="616.8" y="130.6" width="47.8" height="371.4" rx="6" fill="#1f4e8c"/>
<text x="640.7" y="122.6" text-anchor="middle" class="value">0.963</text>
<text x="580.0" y="548" text-anchor="middle" class="label">High shadowing</text>
<rect x="800.8" y="148.4" width="47.8" height="353.6" rx="6" fill="#2f6f73"/>
<text x="824.7" y="140.4" text-anchor="middle" class="value">0.917</text>
<rect x="862.1" y="314.0" width="47.8" height="188.0" rx="6" fill="#c77d32"/>
<text x="886.1" y="306.0" text-anchor="middle" class="value">0.488</text>
<rect x="923.5" y="145.9" width="47.8" height="356.1" rx="6" fill="#1f4e8c"/>
<text x="947.4" y="137.9" text-anchor="middle" class="value">0.923</text>
<text x="886.7" y="548" text-anchor="middle" class="label">High offered load</text>
<rect x="120" y="569" width="18" height="18" rx="4" fill="#2f6f73"/>
<text x="146" y="584" class="legend">Meshtastic-like</text>
<rect x="365" y="569" width="18" height="18" rx="4" fill="#c77d32"/>
<text x="391" y="584" class="legend">MeshCore-like</text>
<rect x="610" y="569" width="18" height="18" rx="4" fill="#1f4e8c"/>
<text x="636" y="584" class="legend">Smart-CALM</text>
</svg>
