<svg xmlns="http://www.w3.org/2000/svg" width="1180" height="640" viewBox="0 0 1180 640">
<style>
text{font-family:Georgia,'Times New Roman',serif;fill:#17212b}
.title{font-size:28px;font-weight:700}
.subtitle{font-size:15px;fill:#5c6873}
.axis{stroke:#26323d;stroke-width:1.2}
.grid{stroke:#d9e0e6;stroke-width:1}
.tick{font-size:13px;fill:#64717d}
.label{font-size:14px;font-weight:600}
.value{font-size:12px;fill:#17212b}
.legend{font-size:13px}
</style>
<rect width="100%" height="100%" fill="#fbf8ef"/>
<rect x="22" y="22" width="1136" height="596" rx="18" fill="#fffdf8" stroke="#e1d7c2"/>
<text x="126" y="56" class="title">Fallback Forwards: Smart-CALM Version Comparison</text>
<text x="126" y="80" class="subtitle">Previous archived CSVs vs regenerated ACK-aware simulations</text>
<line x1="126" y1="512.0" x2="1124" y2="512.0" class="grid"/>
<text x="114" y="516.0" text-anchor="end" class="tick">0</text>
<line x1="126" y1="427.6" x2="1124" y2="427.6" class="grid"/>
<text x="114" y="431.6" text-anchor="end" class="tick">193</text>
<line x1="126" y1="343.2" x2="1124" y2="343.2" class="grid"/>
<text x="114" y="347.2" text-anchor="end" class="tick">387</text>
<line x1="126" y1="258.8" x2="1124" y2="258.8" class="grid"/>
<text x="114" y="262.8" text-anchor="end" class="tick">580</text>
<line x1="126" y1="174.4" x2="1124" y2="174.4" class="grid"/>
<text x="114" y="178.4" text-anchor="end" class="tick">774</text>
<line x1="126" y1="90.0" x2="1124" y2="90.0" class="grid"/>
<text x="114" y="94.0" text-anchor="end" class="tick">967</text>
<line x1="126" y1="90" x2="126" y2="512" class="axis"/>
<line x1="126" y1="512" x2="1124" y2="512" class="axis"/>
<rect x="196.3" y="334.9" width="34.6" height="177.1" rx="5" fill="#6d7885"/>
<text x="213.6" y="327.9" text-anchor="middle" class="value">406</text>
<rect x="244.3" y="377.2" width="34.6" height="134.8" rx="5" fill="#2f6f73"/>
<text x="261.6" y="370.2" text-anchor="middle" class="value">309</text>
<rect x="292.3" y="462.1" width="34.6" height="49.9" rx="5" fill="#c77d32"/>
<text x="309.6" y="455.1" text-anchor="middle" class="value">114</text>
<rect x="340.3" y="450.9" width="34.6" height="61.1" rx="5" fill="#1f4e8c"/>
<text x="357.6" y="443.9" text-anchor="middle" class="value">140</text>
<text x="292.3" y="558" text-anchor="middle" class="label">Mixed traffic</text>
<rect x="529.0" y="365.0" width="34.6" height="147.0" rx="5" fill="#6d7885"/>
<text x="546.3" y="358.0" text-anchor="middle" class="value">337</text>
<rect x="577.0" y="331.6" width="34.6" height="180.4" rx="5" fill="#2f6f73"/>
<text x="594.3" y="324.6" text-anchor="middle" class="value">413</text>
<rect x="625.0" y="470.6" width="34.6" height="41.4" rx="5" fill="#c77d32"/>
<text x="642.3" y="463.6" text-anchor="middle" class="value">95</text>
<rect x="673.0" y="423.9" width="34.6" height="88.1" rx="5" fill="#1f4e8c"/>
<text x="690.3" y="416.9" text-anchor="middle" class="value">202</text>
<text x="625.0" y="558" text-anchor="middle" class="label">High shadowing</text>
<rect x="861.7" y="145.1" width="34.6" height="366.9" rx="5" fill="#6d7885"/>
<text x="878.9" y="138.1" text-anchor="middle" class="value">841</text>
<rect x="909.7" y="141.8" width="34.6" height="370.2" rx="5" fill="#2f6f73"/>
<text x="926.9" y="134.8" text-anchor="middle" class="value">848</text>
<rect x="957.7" y="318.4" width="34.6" height="193.6" rx="5" fill="#c77d32"/>
<text x="974.9" y="311.4" text-anchor="middle" class="value">444</text>
<rect x="1005.7" y="260.2" width="34.6" height="251.8" rx="5" fill="#1f4e8c"/>
<text x="1022.9" y="253.2" text-anchor="middle" class="value">577</text>
<text x="957.7" y="558" text-anchor="middle" class="label">High offered load</text>
<rect x="126" y="585" width="18" height="18" rx="4" fill="#6d7885"/>
<text x="152" y="600" class="legend">v1.1 previous</text>
<rect x="376" y="585" width="18" height="18" rx="4" fill="#2f6f73"/>
<text x="402" y="600" class="legend">v1.1 ACK-aware</text>
<rect x="626" y="585" width="18" height="18" rx="4" fill="#c77d32"/>
<text x="652" y="600" class="legend">v1.1.1 previous</text>
<rect x="876" y="585" width="18" height="18" rx="4" fill="#1f4e8c"/>
<text x="902" y="600" class="legend">Latest ACK-aware</text>
</svg>
