<svg xmlns="http://www.w3.org/2000/svg" width="1180" height="640" viewBox="0 0 1180 640">
<style>
text{font-family:Georgia,'Times New Roman',serif;fill:#17212b}
.title{font-size:28px;font-weight:700}
.subtitle{font-size:15px;fill:#5c6873}
.axis{stroke:#26323d;stroke-width:1.2}
.grid{stroke:#d9e0e6;stroke-width:1}
.tick{font-size:13px;fill:#64717d}
.label{font-size:14px;font-weight:600}
.value{font-size:12px;fill:#17212b}
.legend{font-size:13px}
</style>
<rect width="100%" height="100%" fill="#fbf8ef"/>
<rect x="22" y="22" width="1136" height="596" rx="18" fill="#fffdf8" stroke="#e1d7c2"/>
<text x="126" y="56" class="title">ACK-confirmed Unicast PDR: Smart-CALM Version Comparison</text>
<text x="126" y="80" class="subtitle">Previous archived CSVs vs regenerated ACK-aware simulations</text>
<line x1="126" y1="512.0" x2="1124" y2="512.0" class="grid"/>
<text x="114" y="516.0" text-anchor="end" class="tick">0.000</text>
<line x1="126" y1="427.6" x2="1124" y2="427.6" class="grid"/>
<text x="114" y="431.6" text-anchor="end" class="tick">0.221</text>
<line x1="126" y1="343.2" x2="1124" y2="343.2" class="grid"/>
<text x="114" y="347.2" text-anchor="end" class="tick">0.442</text>
<line x1="126" y1="258.8" x2="1124" y2="258.8" class="grid"/>
<text x="114" y="262.8" text-anchor="end" class="tick">0.663</text>
<line x1="126" y1="174.4" x2="1124" y2="174.4" class="grid"/>
<text x="114" y="178.4" text-anchor="end" class="tick">0.884</text>
<line x1="126" y1="90.0" x2="1124" y2="90.0" class="grid"/>
<text x="114" y="94.0" text-anchor="end" class="tick">1.105</text>
<line x1="126" y1="90" x2="126" y2="512" class="axis"/>
<line x1="126" y1="512" x2="1124" y2="512" class="axis"/>
<rect x="196.3" y="144.7" width="34.6" height="367.3" rx="5" fill="#6d7885"/>
<text x="213.6" y="137.7" text-anchor="middle" class="value">0.962</text>
<rect x="244.3" y="146.8" width="34.6" height="365.2" rx="5" fill="#2f6f73"/>
<text x="261.6" y="139.8" text-anchor="middle" class="value">0.956</text>
<rect x="292.3" y="144.6" width="34.6" height="367.4" rx="5" fill="#c77d32"/>
<text x="309.6" y="137.6" text-anchor="middle" class="value">0.962</text>
<rect x="340.3" y="146.7" width="34.6" height="365.3" rx="5" fill="#1f4e8c"/>
<text x="357.6" y="139.7" text-anchor="middle" class="value">0.957</text>
<text x="292.3" y="558" text-anchor="middle" class="label">Mixed traffic</text>
<rect x="529.0" y="144.1" width="34.6" height="367.9" rx="5" fill="#6d7885"/>
<text x="546.3" y="137.1" text-anchor="middle" class="value">0.963</text>
<rect x="577.0" y="143.5" width="34.6" height="368.5" rx="5" fill="#2f6f73"/>
<text x="594.3" y="136.5" text-anchor="middle" class="value">0.965</text>
<rect x="625.0" y="141.8" width="34.6" height="370.2" rx="5" fill="#c77d32"/>
<text x="642.3" y="134.8" text-anchor="middle" class="value">0.969</text>
<rect x="673.0" y="145.6" width="34.6" height="366.4" rx="5" fill="#1f4e8c"/>
<text x="690.3" y="138.6" text-anchor="middle" class="value">0.959</text>
<text x="625.0" y="558" text-anchor="middle" class="label">High shadowing</text>
<rect x="861.7" y="154.3" width="34.6" height="357.7" rx="5" fill="#6d7885"/>
<text x="878.9" y="147.3" text-anchor="middle" class="value">0.937</text>
<rect x="909.7" y="163.6" width="34.6" height="348.4" rx="5" fill="#2f6f73"/>
<text x="926.9" y="156.6" text-anchor="middle" class="value">0.912</text>
<rect x="957.7" y="156.1" width="34.6" height="355.9" rx="5" fill="#c77d32"/>
<text x="974.9" y="149.1" text-anchor="middle" class="value">0.932</text>
<rect x="1005.7" y="160.5" width="34.6" height="351.5" rx="5" fill="#1f4e8c"/>
<text x="1022.9" y="153.5" text-anchor="middle" class="value">0.920</text>
<text x="957.7" y="558" text-anchor="middle" class="label">High offered load</text>
<rect x="126" y="585" width="18" height="18" rx="4" fill="#6d7885"/>
<text x="152" y="600" class="legend">v1.1 previous</text>
<rect x="376" y="585" width="18" height="18" rx="4" fill="#2f6f73"/>
<text x="402" y="600" class="legend">v1.1 ACK-aware</text>
<rect x="626" y="585" width="18" height="18" rx="4" fill="#c77d32"/>
<text x="652" y="600" class="legend">v1.1.1 previous</text>
<rect x="876" y="585" width="18" height="18" rx="4" fill="#1f4e8c"/>
<text x="902" y="600" class="legend">Latest ACK-aware</text>
</svg>
